<?xml version="1.0" encoding="UTF-8" standalone="no"?>
<!DOCTYPE svg PUBLIC "-//W3C//DTD SVG 1.1//EN"
 "http://www.w3.org/Graphics/SVG/1.1/DTD/svg11.dtd">
<!-- Generated by graphviz version 2.40.1 (20161225.0304)
 -->
<!-- Title: %3 Pages: 1 -->
<svg width="2336pt" height="118pt"
 viewBox="0.00 0.00 2336.24 118.31" xmlns="http://www.w3.org/2000/svg" xmlns:xlink="http://www.w3.org/1999/xlink">
<g id="graph0" class="graph" transform="scale(1 1) rotate(0) translate(4 114.3087)">
<title>%3</title>
<polygon fill="#ffffff" stroke="transparent" points="-4,4 -4,-114.3087 2332.2411,-114.3087 2332.2411,4 -4,4"/>
<!-- 0 -->
<g id="node1" class="node">
<title>0</title>
<ellipse fill="none" stroke="#000000" cx="94.4153" cy="-55.1543" rx="94.3307" ry="25.4118"/>
<text text-anchor="middle" x="94.4153" y="-57.9543" font-family="Helvetica,sans-Serif" font-size="14.00" fill="#000000">Lambda</text>
<text text-anchor="middle" x="94.4153" y="-43.9543" font-family="Helvetica,sans-Serif" font-size="14.00" fill="#000000">input: (160, 320, 3)</text>
</g>
<!-- 1 -->
<g id="node2" class="node">
<title>1</title>
<ellipse fill="none" stroke="#000000" cx="346.75" cy="-55.1543" rx="121.8386" ry="25.4118"/>
<text text-anchor="middle" x="346.75" y="-57.9543" font-family="Helvetica,sans-Serif" font-size="14.00" fill="#000000">Cropping2D</text>
<text text-anchor="middle" x="346.75" y="-43.9543" font-family="Helvetica,sans-Serif" font-size="14.00" fill="#000000">cropping: ([50, 20], [0, 0])</text>
</g>
<!-- 0&#45;&gt;1 -->
<g id="edge1" class="edge">
<title>0&#45;&gt;1</title>
<path fill="none" stroke="#000000" d="M189.0933,-55.1543C197.436,-55.1543 205.9749,-55.1543 214.5511,-55.1543"/>
<polygon fill="#000000" stroke="#000000" points="224.6263,-55.1543 214.6263,-59.6544 219.6263,-55.1544 214.6263,-55.1544 214.6263,-55.1544 214.6263,-55.1544 219.6263,-55.1544 214.6263,-50.6544 224.6263,-55.1543 224.6263,-55.1543"/>
</g>
<!-- 2 -->
<g id="node3" class="node">
<title>2</title>
<ellipse fill="none" stroke="#000000" cx="580.9194" cy="-55.1543" rx="76.0011" ry="55.3091"/>
<text text-anchor="middle" x="580.9194" y="-78.9543" font-family="Helvetica,sans-Serif" font-size="14.00" fill="#000000">Convolution2D</text>
<text text-anchor="middle" x="580.9194" y="-64.9543" font-family="Helvetica,sans-Serif" font-size="14.00" fill="#000000">activation: relu</text>
<text text-anchor="middle" x="580.9194" y="-50.9543" font-family="Helvetica,sans-Serif" font-size="14.00" fill="#000000">kernel: (5, 5)</text>
<text text-anchor="middle" x="580.9194" y="-36.9543" font-family="Helvetica,sans-Serif" font-size="14.00" fill="#000000">filters: 24</text>
<text text-anchor="middle" x="580.9194" y="-22.9543" font-family="Helvetica,sans-Serif" font-size="14.00" fill="#000000">strides: (2, 2)</text>
</g>
<!-- 1&#45;&gt;2 -->
<g id="edge2" class="edge">
<title>1&#45;&gt;2</title>
<path fill="none" stroke="#000000" d="M468.9785,-55.1543C477.5721,-55.1543 486.1286,-55.1543 494.4624,-55.1543"/>
<polygon fill="#000000" stroke="#000000" points="504.505,-55.1543 494.505,-59.6544 499.505,-55.1544 494.505,-55.1544 494.505,-55.1544 494.505,-55.1544 499.505,-55.1544 494.5049,-50.6544 504.505,-55.1543 504.505,-55.1543"/>
</g>
<!-- 3 -->
<g id="node4" class="node">
<title>3</title>
<ellipse fill="none" stroke="#000000" cx="769.4197" cy="-55.1543" rx="76.0011" ry="55.3091"/>
<text text-anchor="middle" x="769.4197" y="-78.9543" font-family="Helvetica,sans-Serif" font-size="14.00" fill="#000000">Convolution2D</text>
<text text-anchor="middle" x="769.4197" y="-64.9543" font-family="Helvetica,sans-Serif" font-size="14.00" fill="#000000">activation: relu</text>
<text text-anchor="middle" x="769.4197" y="-50.9543" font-family="Helvetica,sans-Serif" font-size="14.00" fill="#000000">kernel: (5, 5)</text>
<text text-anchor="middle" x="769.4197" y="-36.9543" font-family="Helvetica,sans-Serif" font-size="14.00" fill="#000000">filters: 36</text>
<text text-anchor="middle" x="769.4197" y="-22.9543" font-family="Helvetica,sans-Serif" font-size="14.00" fill="#000000">strides: (2, 2)</text>
</g>
<!-- 2&#45;&gt;3 -->
<g id="edge3" class="edge">
<title>2&#45;&gt;3</title>
<path fill="none" stroke="#000000" d="M657.3179,-55.1543C665.6617,-55.1543 674.1991,-55.1543 682.6557,-55.1543"/>
<polygon fill="#000000" stroke="#000000" points="692.9123,-55.1543 682.9124,-59.6544 687.9123,-55.1544 682.9123,-55.1544 682.9123,-55.1544 682.9123,-55.1544 687.9123,-55.1544 682.9123,-50.6544 692.9123,-55.1543 692.9123,-55.1543"/>
</g>
<!-- 4 -->
<g id="node5" class="node">
<title>4</title>
<ellipse fill="none" stroke="#000000" cx="957.92" cy="-55.1543" rx="76.0011" ry="55.3091"/>
<text text-anchor="middle" x="957.92" y="-78.9543" font-family="Helvetica,sans-Serif" font-size="14.00" fill="#000000">Convolution2D</text>
<text text-anchor="middle" x="957.92" y="-64.9543" font-family="Helvetica,sans-Serif" font-size="14.00" fill="#000000">activation: relu</text>
<text text-anchor="middle" x="957.92" y="-50.9543" font-family="Helvetica,sans-Serif" font-size="14.00" fill="#000000">kernel: (5, 5)</text>
<text text-anchor="middle" x="957.92" y="-36.9543" font-family="Helvetica,sans-Serif" font-size="14.00" fill="#000000">filters: 48</text>
<text text-anchor="middle" x="957.92" y="-22.9543" font-family="Helvetica,sans-Serif" font-size="14.00" fill="#000000">strides: (2, 2)</text>
</g>
<!-- 3&#45;&gt;4 -->
<g id="edge4" class="edge">
<title>3&#45;&gt;4</title>
<path fill="none" stroke="#000000" d="M845.8182,-55.1543C854.1619,-55.1543 862.6994,-55.1543 871.156,-55.1543"/>
<polygon fill="#000000" stroke="#000000" points="881.4126,-55.1543 871.4127,-59.6544 876.4126,-55.1544 871.4126,-55.1544 871.4126,-55.1544 871.4126,-55.1544 876.4126,-55.1544 871.4126,-50.6544 881.4126,-55.1543 881.4126,-55.1543"/>
</g>
<!-- 5 -->
<g id="node6" class="node">
<title>5</title>
<ellipse fill="none" stroke="#000000" cx="1146.4202" cy="-55.1543" rx="76.0011" ry="55.3091"/>
<text text-anchor="middle" x="1146.4202" y="-78.9543" font-family="Helvetica,sans-Serif" font-size="14.00" fill="#000000">Convolution2D</text>
<text text-anchor="middle" x="1146.4202" y="-64.9543" font-family="Helvetica,sans-Serif" font-size="14.00" fill="#000000">activation: relu</text>
<text text-anchor="middle" x="1146.4202" y="-50.9543" font-family="Helvetica,sans-Serif" font-size="14.00" fill="#000000">kernel: (3, 3)</text>
<text text-anchor="middle" x="1146.4202" y="-36.9543" font-family="Helvetica,sans-Serif" font-size="14.00" fill="#000000">filters: 64</text>
<text text-anchor="middle" x="1146.4202" y="-22.9543" font-family="Helvetica,sans-Serif" font-size="14.00" fill="#000000">strides: (1, 1)</text>
</g>
<!-- 4&#45;&gt;5 -->
<g id="edge5" class="edge">
<title>4&#45;&gt;5</title>
<path fill="none" stroke="#000000" d="M1034.3185,-55.1543C1042.6622,-55.1543 1051.1997,-55.1543 1059.6563,-55.1543"/>
<polygon fill="#000000" stroke="#000000" points="1069.9129,-55.1543 1059.913,-59.6544 1064.9129,-55.1544 1059.9129,-55.1544 1059.9129,-55.1544 1059.9129,-55.1544 1064.9129,-55.1544 1059.9129,-50.6544 1069.9129,-55.1543 1069.9129,-55.1543"/>
</g>
<!-- 6 -->
<g id="node7" class="node">
<title>6</title>
<ellipse fill="none" stroke="#000000" cx="1334.9205" cy="-55.1543" rx="76.0011" ry="55.3091"/>
<text text-anchor="middle" x="1334.9205" y="-78.9543" font-family="Helvetica,sans-Serif" font-size="14.00" fill="#000000">Convolution2D</text>
<text text-anchor="middle" x="1334.9205" y="-64.9543" font-family="Helvetica,sans-Serif" font-size="14.00" fill="#000000">activation: relu</text>
<text text-anchor="middle" x="1334.9205" y="-50.9543" font-family="Helvetica,sans-Serif" font-size="14.00" fill="#000000">kernel: (3, 3)</text>
<text text-anchor="middle" x="1334.9205" y="-36.9543" font-family="Helvetica,sans-Serif" font-size="14.00" fill="#000000">filters: 64</text>
<text text-anchor="middle" x="1334.9205" y="-22.9543" font-family="Helvetica,sans-Serif" font-size="14.00" fill="#000000">strides: (1, 1)</text>
</g>
<!-- 5&#45;&gt;6 -->
<g id="edge6" class="edge">
<title>5&#45;&gt;6</title>
<path fill="none" stroke="#000000" d="M1222.8188,-55.1543C1231.1625,-55.1543 1239.7,-55.1543 1248.1566,-55.1543"/>
<polygon fill="#000000" stroke="#000000" points="1258.4132,-55.1543 1248.4132,-59.6544 1253.4132,-55.1544 1248.4132,-55.1544 1248.4132,-55.1544 1248.4132,-55.1544 1253.4132,-55.1544 1248.4132,-50.6544 1258.4132,-55.1543 1258.4132,-55.1543"/>
</g>
<!-- 7 -->
<g id="node8" class="node">
<title>7</title>
<ellipse fill="none" stroke="#000000" cx="1484.3131" cy="-55.1543" rx="37.2854" ry="18"/>
<text text-anchor="middle" x="1484.3131" y="-50.9543" font-family="Helvetica,sans-Serif" font-size="14.00" fill="#000000">Flatten</text>
</g>
<!-- 6&#45;&gt;7 -->
<g id="edge7" class="edge">
<title>6&#45;&gt;7</title>
<path fill="none" stroke="#000000" d="M1411.3674,-55.1543C1420.0493,-55.1543 1428.6996,-55.1543 1436.8489,-55.1543"/>
<polygon fill="#000000" stroke="#000000" points="1446.8681,-55.1543 1436.8681,-59.6544 1441.8681,-55.1544 1436.8681,-55.1544 1436.8681,-55.1544 1436.8681,-55.1544 1441.8681,-55.1544 1436.868,-50.6544 1446.8681,-55.1543 1446.8681,-55.1543"/>
</g>
<!-- 8 -->
<g id="node9" class="node">
<title>8</title>
<ellipse fill="none" stroke="#000000" cx="1640.3037" cy="-55.1543" rx="82.6967" ry="45.011"/>
<text text-anchor="middle" x="1640.3037" y="-71.9543" font-family="Helvetica,sans-Serif" font-size="14.00" fill="#000000">Dense</text>
<text text-anchor="middle" x="1640.3037" y="-57.9543" font-family="Helvetica,sans-Serif" font-size="14.00" fill="#000000">activation: linear</text>
<text text-anchor="middle" x="1640.3037" y="-43.9543" font-family="Helvetica,sans-Serif" font-size="14.00" fill="#000000">output: 100</text>
<text text-anchor="middle" x="1640.3037" y="-29.9543" font-family="Helvetica,sans-Serif" font-size="14.00" fill="#000000">input: 8448</text>
</g>
<!-- 7&#45;&gt;8 -->
<g id="edge8" class="edge">
<title>7&#45;&gt;8</title>
<path fill="none" stroke="#000000" d="M1521.6767,-55.1543C1529.5353,-55.1543 1538.1573,-55.1543 1547.055,-55.1543"/>
<polygon fill="#000000" stroke="#000000" points="1557.1918,-55.1543 1547.1919,-59.6544 1552.1918,-55.1544 1547.1918,-55.1544 1547.1918,-55.1544 1547.1918,-55.1544 1552.1918,-55.1544 1547.1918,-50.6544 1557.1918,-55.1543 1557.1918,-55.1543"/>
</g>
<!-- 9 -->
<g id="node10" class="node">
<title>9</title>
<ellipse fill="none" stroke="#000000" cx="1842.0001" cy="-55.1543" rx="82.6967" ry="45.011"/>
<text text-anchor="middle" x="1842.0001" y="-71.9543" font-family="Helvetica,sans-Serif" font-size="14.00" fill="#000000">Dense</text>
<text text-anchor="middle" x="1842.0001" y="-57.9543" font-family="Helvetica,sans-Serif" font-size="14.00" fill="#000000">activation: linear</text>
<text text-anchor="middle" x="1842.0001" y="-43.9543" font-family="Helvetica,sans-Serif" font-size="14.00" fill="#000000">output: 50</text>
<text text-anchor="middle" x="1842.0001" y="-29.9543" font-family="Helvetica,sans-Serif" font-size="14.00" fill="#000000">input: 100</text>
</g>
<!-- 8&#45;&gt;9 -->
<g id="edge9" class="edge">
<title>8&#45;&gt;9</title>
<path fill="none" stroke="#000000" d="M1723.2145,-55.1543C1731.7269,-55.1543 1740.4154,-55.1543 1749.0268,-55.1543"/>
<polygon fill="#000000" stroke="#000000" points="1759.0853,-55.1543 1749.0854,-59.6544 1754.0853,-55.1544 1749.0853,-55.1544 1749.0853,-55.1544 1749.0853,-55.1544 1754.0853,-55.1544 1749.0853,-50.6544 1759.0853,-55.1543 1759.0853,-55.1543"/>
</g>
<!-- 10 -->
<g id="node11" class="node">
<title>10</title>
<ellipse fill="none" stroke="#000000" cx="2043.6965" cy="-55.1543" rx="82.6967" ry="45.011"/>
<text text-anchor="middle" x="2043.6965" y="-71.9543" font-family="Helvetica,sans-Serif" font-size="14.00" fill="#000000">Dense</text>
<text text-anchor="middle" x="2043.6965" y="-57.9543" font-family="Helvetica,sans-Serif" font-size="14.00" fill="#000000">activation: linear</text>
<text text-anchor="middle" x="2043.6965" y="-43.9543" font-family="Helvetica,sans-Serif" font-size="14.00" fill="#000000">output: 10</text>
<text text-anchor="middle" x="2043.6965" y="-29.9543" font-family="Helvetica,sans-Serif" font-size="14.00" fill="#000000">input: 50</text>
</g>
<!-- 9&#45;&gt;10 -->
<g id="edge10" class="edge">
<title>9&#45;&gt;10</title>
<path fill="none" stroke="#000000" d="M1924.9109,-55.1543C1933.4232,-55.1543 1942.1117,-55.1543 1950.7232,-55.1543"/>
<polygon fill="#000000" stroke="#000000" points="1960.7817,-55.1543 1950.7818,-59.6544 1955.7817,-55.1544 1950.7817,-55.1544 1950.7817,-55.1544 1950.7817,-55.1544 1955.7817,-55.1544 1950.7817,-50.6544 1960.7817,-55.1543 1960.7817,-55.1543"/>
</g>
<!-- 11 -->
<g id="node12" class="node">
<title>11</title>
<ellipse fill="none" stroke="#000000" cx="2245.3929" cy="-55.1543" rx="82.6967" ry="45.011"/>
<text text-anchor="middle" x="2245.3929" y="-71.9543" font-family="Helvetica,sans-Serif" font-size="14.00" fill="#000000">Dense</text>
<text text-anchor="middle" x="2245.3929" y="-57.9543" font-family="Helvetica,sans-Serif" font-size="14.00" fill="#000000">activation: linear</text>
<text text-anchor="middle" x="2245.3929" y="-43.9543" font-family="Helvetica,sans-Serif" font-size="14.00" fill="#000000">output: 1</text>
<text text-anchor="middle" x="2245.3929" y="-29.9543" font-family="Helvetica,sans-Serif" font-size="14.00" fill="#000000">input: 10</text>
</g>
<!-- 10&#45;&gt;11 -->
<g id="edge11" class="edge">
<title>10&#45;&gt;11</title>
<path fill="none" stroke="#000000" d="M2126.6073,-55.1543C2135.1196,-55.1543 2143.8081,-55.1543 2152.4196,-55.1543"/>
<polygon fill="#000000" stroke="#000000" points="2162.4781,-55.1543 2152.4782,-59.6544 2157.4781,-55.1544 2152.4781,-55.1544 2152.4781,-55.1544 2152.4781,-55.1544 2157.4781,-55.1544 2152.4781,-50.6544 2162.4781,-55.1543 2162.4781,-55.1543"/>
</g>
</g>
</svg>
